<svg width="30" height="30" viewBox="0 0 30 30" fill="none" xmlns="http://www.w3.org/2000/svg">
<path d="M6.4876 7.97499C6.2501 7.97499 6.0001 7.87499 5.8251 7.69999C5.4626 7.33749 5.4626 6.73749 5.8251 6.37499L10.3626 1.83749C10.7251 1.47499 11.3251 1.47499 11.6876 1.83749C12.0501 2.19999 12.0501 2.79999 11.6876 3.16249L7.1501 7.69999C6.9626 7.87499 6.7251 7.97499 6.4876 7.97499Z" fill="#343434"/>
<path d="M23.5124 7.97499C23.2749 7.97499 23.0374 7.88749 22.8499 7.69999L18.3124 3.16249C17.9499 2.79999 17.9499 2.19999 18.3124 1.83749C18.6749 1.47499 19.2749 1.47499 19.6374 1.83749L24.1749 6.37499C24.5374 6.73749 24.5374 7.33749 24.1749 7.69999C23.9999 7.87499 23.7499 7.97499 23.5124 7.97499Z" fill="#343434"/>
<path d="M25.2625 13.25C25.175 13.25 25.0875 13.25 25 13.25H24.7125H5C4.125 13.2625 3.125 13.2625 2.4 12.5375C1.825 11.975 1.5625 11.1 1.5625 9.8125C1.5625 6.375 4.075 6.375 5.275 6.375H24.725C25.925 6.375 28.4375 6.375 28.4375 9.8125C28.4375 11.1125 28.175 11.975 27.6 12.5375C26.95 13.1875 26.075 13.25 25.2625 13.25ZM5.275 11.375H25.0125C25.575 11.3875 26.1 11.3875 26.275 11.2125C26.3625 11.125 26.55 10.825 26.55 9.8125C26.55 8.4 26.2 8.25 24.7125 8.25H5.275C3.7875 8.25 3.4375 8.4 3.4375 9.8125C3.4375 10.825 3.6375 11.125 3.7125 11.2125C3.8875 11.375 4.425 11.375 4.975 11.375H5.275Z" fill="#343434"/>
<path d="M12.2002 22.875C11.6877 22.875 11.2627 22.45 11.2627 21.9375V17.5C11.2627 16.9875 11.6877 16.5625 12.2002 16.5625C12.7127 16.5625 13.1377 16.9875 13.1377 17.5V21.9375C13.1377 22.4625 12.7127 22.875 12.2002 22.875Z" fill="#343434"/>
<path d="M17.9502 22.875C17.4377 22.875 17.0127 22.45 17.0127 21.9375V17.5C17.0127 16.9875 17.4377 16.5625 17.9502 16.5625C18.4627 16.5625 18.8877 16.9875 18.8877 17.5V21.9375C18.8877 22.4625 18.4627 22.875 17.9502 22.875Z" fill="#343434"/>
<path d="M18.6124 28.4375H11.0749C6.59994 28.4375 5.59994 25.775 5.21244 23.4625L3.44994 12.65C3.36244 12.1375 3.71244 11.6625 4.22494 11.575C4.73744 11.4875 5.21244 11.8375 5.29994 12.35L7.06244 23.15C7.42494 25.3625 8.17494 26.5625 11.0749 26.5625H18.6124C21.8249 26.5625 22.1874 25.4375 22.5999 23.2625L24.6999 12.325C24.7999 11.8125 25.2874 11.475 25.7999 11.5875C26.3124 11.6875 26.6374 12.175 26.5374 12.6875L24.4374 23.625C23.9499 26.1625 23.1374 28.4375 18.6124 28.4375Z" fill="#343434"/>
</svg>
